PathFileType	4	(X/Y/Z)	5_coords_data.trc
DataRate	CameraRate	NumFrames	NumMarkers	Units	OrigDataRate	OrigDataStartFrame	OrigNumFrames
30.0	30.0	8	21	m	30.0	50	59
Frame#	Time	THUMB_TIP	THUMB_IP	THUMB_MCP	THUMB_CMC	INDEX_TIP	INDEX_DIP	INDEX_PIP	INDEX_MCP	MIDDLE_TIP	MIDDLE_DIP	MIDDLE_PIP	MIDDLE_MCP	RING_TIP	RING_DIP	RING_PIP	RING_MCP	PINKY_TIP	PINKY_DIP	PINKY_PIP	PINKY_MCP	WRIST
X1	Y1	Z1	X2	Y2	Z2	X3	Y3	Z3	X4	Y4	Z4	X5	Y5	Z5	X6	Y6	Z6	X7	Y7	Z7	X8	Y8	Z8	X9	Y9	Z9	X10	Y10	Z10	X11	Y11	Z11	X12	Y12	Z12	X13	Y13	Z13	X14	Y14	Z14	X15	Y15	Z15	X16	Y16	Z16	X17	Y17	Z17	X18	Y18	Z18	X19	Y19	Z19	X20	Y20	Z20	X21	Y21	Z21
49	1.6333333333333333	-0.019384300231933594	-0.16428199768066407	0.9929749755859375	-0.016350299835205077	-0.14091799926757811	1.0043300170898437	-0.02560580062866211	-0.12380699920654296	1.0266400146484376	-0.024732999801635742	-0.09160739898681641	1.0387900390625	0.01127810001373291	-0.11870700073242188	0.9133800048828125	-0.0038232998847961422	-0.11607199859619141	0.9297550048828125	-0.018468299865722657	-0.11310500335693359	0.9479420166015625	-0.030970100402832032	-0.10730699920654296	0.9821900024414062	0.01410789966583252	-0.09074900054931641	0.8964130249023438	0.00154419994354248	-0.09147339630126954	0.917125	-0.014483900070190429	-0.09068299865722657	0.9420540161132812	-0.03047330093383789	-0.08701029968261718	0.9767239990234375	0.012082300186157226	-0.06896869659423828	0.9022000122070313	-0.001045930027961731	-0.06776329803466796	0.9216279907226562	-0.01625830078125	-0.06723629760742188	0.9440819702148437	-0.027829200744628906	-0.06847720336914062	0.9789910278320313	0.008928099632263183	-0.046489398956298826	0.926843017578125	-0.0040813698768615726	-0.04637530136108398	0.941968994140625	-0.01417609977722168	-0.047721599578857424	0.9574810180664063	-0.021535999298095704	-0.05155070114135742	0.9829099731445312	-0.040886600494384764	-0.06071360015869141	1.0515699462890624
50	1.6666666666666667	-0.02013330078125	-0.16458900451660155	0.9943419799804688	-0.016889400482177734	-0.14110099792480468	1.00525	-0.026258100509643556	-0.12339900207519532	1.02706005859375	-0.02539579963684082	-0.09110880279541016	1.038969970703125	0.0077900800704956055	-0.11722899627685547	0.9106589965820312	-0.005853950023651123	-0.11497100067138671	0.9286300048828126	-0.019020200729370117	-0.11219999694824219	0.9478759765625	-0.030642099380493164	-0.10676200103759766	0.9823679809570313	0.011014699935913086	-0.08895590209960938	0.894510009765625	-0.00016619600355625102	-0.09015689849853516	0.9160910034179688	-0.014790200233459472	-0.08979280090332031	0.9418350219726562	-0.029999799728393554	-0.08650080108642579	0.9767849731445313	0.009205209732055663	-0.06733619689941406	0.900208984375	-0.0022544000148773187	-0.06654219818115234	0.9208800048828125	-0.016049400329589843	-0.06639640045166016	0.94443701171875	-0.027247800827026367	-0.06799749755859374	0.9792059936523437	0.006654009819030761	-0.044167098999023435	0.9251890258789063	-0.0049596199989318844	-0.04494580078125	0.9417020263671875	-0.014026100158691407	-0.0468578987121582	0.9577479858398438	-0.02098520088195801	-0.05110260009765625	0.9831859741210938	-0.041776401519775394	-0.06006470108032227	1.051800048828125
51	1.7	-0.020525100708007813	-0.1648419952392578	0.9954619750976562	-0.01714109992980957	-0.1412530059814453	1.00597998046875	-0.026605600357055663	-0.12317500305175781	1.027489990234375	-0.025817100524902343	-0.09079290008544921	1.03918994140625	0.003486850023269653	-0.1163759994506836	0.9083369750976562	-0.008426859855651855	-0.11446800231933593	0.927635986328125	-0.020210500717163085	-0.11191000366210938	0.9478980102539063	-0.030674999237060546	-0.10660800170898438	0.982656005859375	0.007346660137176514	-0.08787319946289063	0.8928800048828125	-0.0024623200893402098	-0.08940519714355469	0.915280029296875	-0.015633199691772463	-0.08941829681396485	0.94175	-0.029673999786376953	-0.08638729858398438	0.9768300170898437	0.0054601898193359375	-0.06647100067138671	0.898531005859375	-0.004509769916534424	-0.06597460174560547	0.9201400146484375	-0.016816900253295897	-0.06606490325927734	0.9444409790039062	-0.027166500091552734	-0.06790840148925781	0.9794219970703125	0.003419420003890991	-0.042693801879882816	0.9237960205078125	-0.006926209926605225	-0.044144500732421876	0.9413839721679688	-0.014939299583435059	-0.046455398559570316	0.957905029296875	-0.021245399475097657	-0.05109339904785156	0.983291015625	-0.042303298950195314	-0.05983539962768555	1.0519599609375
52	1.7333333333333334	-0.020504600524902345	-0.1648919982910156	0.9958800048828125	-0.01725670051574707	-0.14124299621582032	1.0063499755859375	-0.027026599884033203	-0.12314199829101563	1.0276600341796875	-0.02634950065612793	-0.09071410369873047	1.039280029296875	0.001064210057258606	-0.11611000061035157	0.9072440185546875	-0.009795470237731934	-0.11435099792480469	0.9272659912109374	-0.020700799942016603	-0.11186199951171875	0.947968994140625	-0.03085650062561035	-0.10654900360107422	0.9828330078125	0.005590169906616211	-0.0875438003540039	0.8923300170898437	-0.003577860116958618	-0.08924919891357422	0.9150139770507812	-0.01624209976196289	-0.08938310241699218	0.9417230224609375	-0.02996910095214844	-0.08640070343017578	0.9768820190429688	0.0036461598873138417	-0.06613410186767578	0.8978179931640625	-0.0056522698402404785	-0.06582309722900391	0.919947998046875	-0.01731340026855469	-0.06602639770507812	0.94447998046875	-0.027535499572753905	-0.06786650085449218	0.9794340209960938	0.0013801499605178831	-0.04200699996948242	0.92310302734375	-0.00826980972290039	-0.043765998840332034	0.941135986328125	-0.015831899642944337	-0.04628419876098633	0.9579010009765625	-0.02182309913635254	-0.05107780075073242	0.9831320190429688	-0.0430250015258789	-0.05977339935302734	1.0520400390625
53	1.7666666666666666	-0.020784799575805663	-0.16484700012207032	0.9959769897460937	-0.017646499633789062	-0.14120700073242187	1.00647998046875	-0.02748819923400879	-0.12312999725341797	1.02772998046875	-0.026903499603271486	-0.09073629760742187	1.0393399658203124	0.000136847004294395	-0.11577899932861328	0.9068690185546875	-0.010371299743652343	-0.11418199920654297	0.92710498046875	-0.021059900283813476	-0.1117699966430664	0.9479869995117187	-0.03123979949951172	-0.10654900360107422	0.9828569946289063	0.006261630058288574	-0.087439697265625	0.8927869873046875	-0.003116230010986328	-0.08919629669189454	0.9153170166015625	-0.016020299911499024	-0.08938259887695313	0.9419019775390625	-0.030112199783325196	-0.08637680053710937	0.9769190063476563	0.004732210159301758	-0.06579570007324219	0.8984019775390625	-0.004812660217285156	-0.0655990982055664	0.9203489990234375	-0.016826000213623047	-0.06592189788818359	0.9447529907226563	-0.027598100662231444	-0.06783830261230468	0.9795640258789062	0.001837479948997497	-0.041906700134277344	0.9234639892578125	-0.007927529811859131	-0.043706298828125	0.9413989868164062	-0.01563759994506836	-0.04622549819946289	0.9580859985351563	-0.021887100219726563	-0.05105580139160156	0.9834310302734375	-0.04363769912719727	-0.05962210083007812	1.0521400146484374
54	1.8	-0.020847499847412108	-0.16472900390625	0.9958460083007813	-0.017770299911499022	-0.14111099243164063	1.0064400024414062	-0.027827199935913087	-0.12312599945068359	1.0278800048828125	-0.02713290023803711	-0.09077510070800782	1.0395	-0.001023560047149658	-0.11559600067138671	0.9067059936523437	-0.011365300178527831	-0.11406900024414063	0.9270479736328125	-0.021809999465942382	-0.11174700164794922	0.9479970092773438	-0.031688299179077145	-0.10660800170898438	0.9829420166015626	0.005652249813079834	-0.08755760192871094	0.89285400390625	-0.0037368700504302977	-0.08927339935302735	0.915364990234375	-0.01663789939880371	-0.08943689727783204	0.9418839721679687	-0.03073460006713867	-0.08640989685058593	0.9771400146484375	0.004289050102233887	-0.06584590148925781	0.8985390014648438	-0.005305520057678223	-0.06561669921875	0.9204500122070313	-0.017395599365234375	-0.0659126968383789	0.9448369750976563	-0.02813759994506836	-0.06792079925537109	0.9797050170898437	0.001563130021095275	-0.042006301879882815	0.9235780029296875	-0.008246390342712403	-0.043807098388671875	0.9415659790039063	-0.01598400020599365	-0.04633689880371094	0.9582449951171875	-0.02220669937133789	-0.05120280075073242	0.9835349731445312	-0.04376399993896484	-0.059848400115966795	1.052199951171875
55	1.8333333333333333	-0.020633499145507814	-0.16450599670410157	0.9957050170898437	-0.017728700637817382	-0.14095599365234374	1.0063200073242187	-0.027950300216674804	-0.12321299743652343	1.0278699951171875	-0.02740730094909668	-0.09081050109863281	1.0393800048828126	-0.002205450057983398	-0.115875	0.90647802734375	-0.012346099853515625	-0.11430400085449219	0.926958984375	-0.02266360092163086	-0.11195700073242187	0.948010009765625	-0.03242150115966797	-0.10675499725341797	0.9830269775390625	0.004653130054473877	-0.08794149780273437	0.8927340087890625	-0.004717160224914551	-0.08957540130615234	0.915301025390625	-0.017551599502563478	-0.08968150329589844	0.94185400390625	-0.03154660034179688	-0.08657319641113281	0.9771820068359375	0.002957170009613037	-0.06618270111083985	0.898208984375	-0.006527470111846924	-0.0658584976196289	0.9201439819335937	-0.018467599868774415	-0.06607649993896485	0.9445789794921875	-0.028990900039672852	-0.06805580139160156	0.979677001953125	0.000269921004772186	-0.04223249816894531	0.9231929931640624	-0.009406140327453613	-0.04397610092163086	0.941176025390625	-0.017058300018310546	-0.04649250030517578	0.9579390258789062	-0.023062299728393555	-0.051296798706054685	0.9833839721679688	-0.044045600891113285	-0.05975799942016601	1.0521300048828126
56	1.8666666666666667	-0.021010799407958983	-0.1643090057373047	0.9952459716796875	-0.01832259941101074	-0.14077000427246095	1.0060399780273437	-0.02844070053100586	-0.12319100189208984	1.02775	-0.027797199249267577	-0.09080729675292969	1.0393900146484376	-0.002287220001220703	-0.11617400360107422	0.9065780029296875	-0.012531900405883789	-0.11455899810791016	0.9269539794921875	-0.023000900268554687	-0.1121449966430664	0.9479140014648437	-0.03292269897460937	-0.10679199981689454	0.9827899780273438	0.004610169887542725	-0.0880208969116211	0.89285400390625	-0.00490693998336792	-0.08966549682617188	0.9153369750976562	-0.01791390037536621	-0.08973130035400391	0.9418460083007812	-0.032014198303222656	-0.08658830261230469	0.9769710083007812	0.0031110401153564447	-0.06622940063476562	0.8983400268554688	-0.006610690116882324	-0.06592030334472657	0.9202429809570313	-0.018802799224853516	-0.06614209747314453	0.9445830078125	-0.0295531005859375	-0.06806710052490235	0.9795759887695312	0.00012114000320434502	-0.042337600708007815	0.9232050170898437	-0.009661330223083495	-0.04404690170288086	0.9411849975585938	-0.017378000259399413	-0.046535701751708985	0.9579409790039063	-0.02355890083312988	-0.051299198150634766	0.9833270263671875	-0.04433119964599609	-0.0598848991394043	1.0520400390625
